<?xml version="1.0" encoding="utf-8"?>
<svg version="1.1" xmlns:xlink="http://www.w3.org/1999/xlink" width="25px" height="5px" xmlns="http://www.w3.org/2000/svg">
  <g transform="matrix(1 0 0 1 -319 -68 )">
    <path d="M 6.3210227272727275 0.36458333333333315  C 6.65246212121212 0.6076388888888867  6.8181818181818175 0.9027777777777768  6.8181818181818175 1.25  L 6.8181818181818175 3.75  C 6.8181818181818175 4.097222222222221  6.65246212121212 4.39236111111111  6.3210227272727275 4.635416666666667  C 5.989583333333334 4.878472222222221  5.587121212121213 5  5.113636363636364 5  L 1.7045454545454544 5  C 1.2310606060606062 5  0.828598484848485 4.878472222222221  0.4971590909090909 4.635416666666667  C 0.16571969696969696 4.39236111111111  0 4.097222222222221  0 3.75  L 0 1.25  C 0 0.9027777777777768  0.16571969696969696 0.6076388888888867  0.4971590909090909 0.36458333333333315  C 0.828598484848485 0.12152777777777679  1.2310606060606062 0  1.7045454545454544 0  L 5.113636363636364 0  C 5.587121212121213 0  5.989583333333334 0.12152777777777679  6.3210227272727275 0.36458333333333315  Z M 15.411931818181818 0.36458333333333315  C 15.743371212121213 0.6076388888888867  15.909090909090908 0.9027777777777768  15.909090909090908 1.25  L 15.909090909090908 3.75  C 15.909090909090908 4.097222222222221  15.743371212121213 4.39236111111111  15.411931818181818 4.635416666666667  C 15.080492424242427 4.878472222222221  14.678030303030305 5  14.204545454545455 5  L 10.795454545454545 5  C 10.321969696969697 5  9.919507575757578 4.878472222222221  9.588068181818182 4.635416666666667  C 9.256628787878789 4.39236111111111  9.090909090909092 4.097222222222221  9.090909090909092 3.75  L 9.090909090909092 1.25  C 9.090909090909092 0.9027777777777768  9.256628787878789 0.6076388888888867  9.588068181818182 0.36458333333333315  C 9.919507575757578 0.12152777777777679  10.321969696969697 0  10.795454545454545 0  L 14.204545454545455 0  C 14.678030303030305 0  15.080492424242427 0.12152777777777679  15.411931818181818 0.36458333333333315  Z M 24.50284090909091 0.36458333333333315  C 24.834280303030305 0.6076388888888867  25 0.9027777777777768  25 1.25  L 25 3.75  C 25 4.097222222222221  24.834280303030305 4.39236111111111  24.50284090909091 4.635416666666667  C 24.171401515151516 4.878472222222221  23.768939393939394 5  23.295454545454543 5  L 19.886363636363637 5  C 19.41287878787879 5  19.010416666666668 4.878472222222221  18.678977272727273 4.635416666666667  C 18.347537878787882 4.39236111111111  18.181818181818183 4.097222222222221  18.181818181818183 3.75  L 18.181818181818183 1.25  C 18.181818181818183 0.9027777777777768  18.347537878787882 0.6076388888888867  18.678977272727273 0.36458333333333315  C 19.010416666666668 0.12152777777777679  19.41287878787879 0  19.886363636363637 0  L 23.295454545454543 0  C 23.768939393939394 0  24.171401515151516 0.12152777777777679  24.50284090909091 0.36458333333333315  Z " fill-rule="nonzero" fill="#b9b9b9" stroke="none" transform="matrix(1 0 0 1 319 68 )" />
  </g>
</svg>