<?xml version="1.0" encoding="utf-8"?>
<svg version="1.1" xmlns:xlink="http://www.w3.org/1999/xlink" width="35px" height="35px" xmlns="http://www.w3.org/2000/svg">
  <g transform="matrix(1 0 0 1 -41 -269 )">
    <path d="M 22.6953125 20.64453125  C 24.22960069444445 21.768663194444446  25.277777777777782 23.24978298611111  25.83984375 25.087890625  C 25.961371527777782 25.467664930555554  25.930989583333332 25.836046006944446  25.748697916666668 26.193033854166664  C 25.56640625 26.55002170138889  25.28537326388889 26.78927951388889  24.905598958333332 26.910807291666668  C 24.525824652777782 27.032335069444443  24.153645833333332 27.001953125  23.7890625 26.819661458333332  C 23.424479166666668 26.637369791666668  23.181423611111114 26.348741319444443  23.059895833333332 25.953776041666664  C 22.680121527777782 24.738498263888882  21.977539062500004 23.7548828125  20.9521484375 23.0029296875  C 19.926757812500004 22.2509765625  18.776041666666668 21.875  17.5 21.875  C 16.223958333333336 21.875  15.0732421875 22.2509765625  14.0478515625 23.0029296875  C 13.0224609375 23.7548828125  12.319878472222225 24.738498263888882  11.940104166666666 25.953776041666664  C 11.818576388888891 26.348741319444443  11.579318576388891 26.637369791666668  11.222330729166666 26.819661458333332  C 10.865342881944445 27.001953125  10.496961805555557 27.032335069444443  10.1171875 26.910807291666668  C 9.722222222222223 26.78927951388889  9.43359375 26.55002170138889  9.251302083333334 26.193033854166664  C 9.069010416666666 25.836046006944446  9.038628472222223 25.467664930555554  9.16015625 25.087890625  C 9.722222222222223 23.24978298611111  10.770399305555557 21.768663194444446  12.3046875 20.64453125  C 13.838975694444445 19.520399305555554  15.570746527777779 18.958333333333336  17.5 18.958333333333336  C 19.42925347222222 18.958333333333336  21.161024305555557 19.520399305555554  22.6953125 20.64453125  Z M 13.728841145833334 9.6044921875  C 14.298502604166666 10.174153645833332  14.583333333333334 10.861545138888888  14.583333333333334 11.666666666666668  C 14.583333333333334 12.471788194444441  14.298502604166666 13.159179687499996  13.728841145833334 13.728841145833332  C 13.1591796875 14.298502604166668  12.471788194444445 14.583333333333332  11.666666666666666 14.583333333333332  C 10.861545138888891 14.583333333333332  10.174153645833334 14.298502604166668  9.6044921875 13.728841145833332  C 9.034830729166666 13.159179687499996  8.75 12.471788194444441  8.75 11.666666666666668  C 8.75 10.861545138888888  9.034830729166666 10.174153645833332  9.6044921875 9.6044921875  C 10.174153645833334 9.034830729166668  10.861545138888891 8.75  11.666666666666666 8.75  C 12.471788194444445 8.75  13.1591796875 9.034830729166668  13.728841145833334 9.6044921875  Z M 25.3955078125 9.6044921875  C 25.965169270833332 10.174153645833332  26.25 10.861545138888888  26.25 11.666666666666668  C 26.25 12.471788194444441  25.965169270833332 13.159179687499996  25.3955078125 13.728841145833332  C 24.825846354166668 14.298502604166668  24.138454861111114 14.583333333333332  23.333333333333332 14.583333333333332  C 22.528211805555557 14.583333333333332  21.8408203125 14.298502604166668  21.271158854166668 13.728841145833332  C 20.701497395833332 13.159179687499996  20.416666666666668 12.471788194444441  20.416666666666668 11.666666666666668  C 20.416666666666668 10.861545138888888  20.701497395833332 10.174153645833332  21.271158854166668 9.6044921875  C 21.8408203125 9.034830729166668  22.528211805555557 8.75  23.333333333333332 8.75  C 24.138454861111114 8.75  24.825846354166668 9.034830729166668  25.3955078125 9.6044921875  Z M 30.921223958333332 23.162434895833336  C 31.695963541666668 21.3623046875  32.08333333333333 19.47482638888889  32.08333333333333 17.5  C 32.08333333333333 15.525173611111109  31.695963541666668 13.6376953125  30.921223958333332 11.837565104166668  C 30.146484375 10.037434895833332  29.109700520833332 8.487955729166668  27.810872395833332 7.189127604166668  C 26.512044270833332 5.890299479166668  24.962565104166668 4.853515625  23.162434895833332 4.078776041666668  C 21.3623046875 3.304036458333332  19.47482638888889 2.916666666666668  17.5 2.916666666666668  C 15.52517361111111 2.916666666666668  13.6376953125 3.304036458333332  11.837565104166666 4.078776041666668  C 10.037434895833334 4.853515625  8.487955729166668 5.890299479166668  7.189127604166667 7.189127604166668  C 5.890299479166667 8.487955729166668  4.853515625 10.037434895833332  4.078776041666666 11.837565104166668  C 3.3040364583333335 13.6376953125  2.9166666666666665 15.525173611111109  2.9166666666666665 17.5  C 2.9166666666666665 19.47482638888889  3.3040364583333335 21.3623046875  4.078776041666666 23.162434895833336  C 4.853515625 24.962565104166664  5.890299479166667 26.512044270833332  7.189127604166667 27.810872395833332  C 8.487955729166668 29.109700520833332  10.037434895833334 30.146484375  11.837565104166666 30.921223958333332  C 13.6376953125 31.695963541666668  15.52517361111111 32.08333333333333  17.5 32.08333333333333  C 19.47482638888889 32.08333333333333  21.3623046875 31.695963541666668  23.162434895833332 30.921223958333332  C 24.962565104166668 30.146484375  26.512044270833332 29.109700520833332  27.810872395833332 27.810872395833332  C 29.109700520833332 26.512044270833332  30.146484375 24.962565104166664  30.921223958333332 23.162434895833336  Z M 32.65299479166667 8.7158203125  C 34.21766493055555 11.397026909722218  35 14.32508680555555  35 17.5  C 35 20.674913194444446  34.21766493055555 23.602973090277775  32.65299479166667 26.2841796875  C 31.088324652777782 28.96538628472222  28.96538628472222 31.08832465277778  26.2841796875 32.65299479166667  C 23.602973090277782 34.21766493055556  20.674913194444446 35  17.5 35  C 14.325086805555557 35  11.397026909722223 34.21766493055556  8.7158203125 32.65299479166667  C 6.034613715277779 31.08832465277778  3.9116753472222228 28.96538628472222  2.3470052083333335 26.2841796875  C 0.7823350694444443 23.602973090277775  0 20.674913194444446  0 17.5  C 0 14.32508680555555  0.7823350694444443 11.397026909722218  2.3470052083333335 8.7158203125  C 3.9116753472222228 6.034613715277778  6.034613715277779 3.9116753472222188  8.7158203125 2.347005208333332  C 11.397026909722223 0.7823350694444414  14.325086805555557 0  17.5 0  C 20.674913194444446 0  23.602973090277782 0.7823350694444414  26.2841796875 2.347005208333332  C 28.96538628472222 3.9116753472222188  31.088324652777782 6.034613715277778  32.65299479166667 8.7158203125  Z " fill-rule="nonzero" fill="#b9b9b9" stroke="none" transform="matrix(1 0 0 1 41 269 )" />
  </g>
</svg>