<?xml version="1.0" encoding="utf-8"?>
<svg version="1.1" xmlns:xlink="http://www.w3.org/1999/xlink" width="15px" height="15px" xmlns="http://www.w3.org/2000/svg">
  <g transform="matrix(1 0 0 1 -456 -126 )">
    <path d="M 12.28515625 11.38671875  C 12.428385416666666 11.041666666666664  12.5 10.712890624999998  12.5 10.400390625  C 12.5 10.328776041666666  12.493489583333336 10.276692708333332  12.48046875 10.244140624999998  C 12.467447916666668 10.211588541666666  12.408854166666668 10.157877604166664  12.3046875 10.083007812499998  C 12.200520833333336 10.008138020833332  12.068684895833336 9.926757812500002  11.9091796875 9.838867187500002  C 11.749674479166668 9.750976562500002  11.595052083333336 9.664713541666664  11.4453125 9.580078125  C 11.295572916666668 9.495442708333332  11.1474609375 9.414062500000002  11.0009765625 9.335937499999998  C 10.8544921875 9.2578125  10.76171875 9.208984375000002  10.72265625 9.189453124999998  C 10.690104166666668 9.169921875  10.628255208333336 9.127604166666666  10.537109375 9.062500000000002  C 10.445963541666668 8.997395833333332  10.364583333333336 8.948567708333334  10.29296875 8.916015625000002  C 10.221354166666668 8.883463541666664  10.152994791666668 8.867187499999998  10.087890625 8.867187499999998  C 9.990234375 8.867187499999998  9.871419270833334 8.933919270833334  9.7314453125 9.0673828125  C 9.591471354166668 9.200846354166666  9.462890625000002 9.347330729166666  9.345703125 9.5068359375  C 9.228515625000002 9.666341145833334  9.103190104166666 9.812825520833334  8.9697265625 9.9462890625  C 8.836263020833334 10.079752604166666  8.727213541666668 10.146484375000002  8.642578125 10.146484375000002  C 8.597005208333334 10.146484375000002  8.543294270833334 10.135091145833334  8.4814453125 10.112304687499998  C 8.419596354166668 10.089518229166664  8.369140625 10.068359374999998  8.330078125 10.048828125  C 8.291015625 10.029296875000002  8.235677083333334 9.998372395833332  8.1640625 9.956054687500002  C 8.092447916666666 9.913736979166664  8.046875 9.886067708333334  8.02734375 9.873046875  C 7.3828125 9.514973958333332  6.829427083333333 9.103190104166664  6.3671875 8.637695312500002  C 5.904947916666667 8.172200520833334  5.491536458333334 7.6171875  5.126953125 6.97265625  C 5.113932291666667 6.953124999999999  5.086263020833333 6.907552083333333  5.0439453125 6.835937499999999  C 5.001627604166668 6.764322916666666  4.970703125000001 6.708984375  4.951171875 6.669921875000001  C 4.931640625 6.630859374999999  4.910481770833333 6.580403645833332  4.8876953125 6.5185546875  C 4.864908854166667 6.456705729166666  4.853515625 6.402994791666666  4.853515625 6.357421875  C 4.853515625 6.272786458333332  4.920247395833334 6.163736979166666  5.0537109375 6.030273437499999  C 5.187174479166667 5.896809895833333  5.333658854166667 5.771484375  5.4931640625 5.654296875  C 5.652669270833334 5.537109375  5.799153645833334 5.408528645833332  5.9326171875 5.268554687499999  C 6.066080729166667 5.128580729166666  6.1328125 5.009765625  6.1328125 4.912109375000001  C 6.1328125 4.847005208333332  6.116536458333334 4.778645833333332  6.083984375 4.707031250000001  C 6.051432291666667 4.635416666666665  6.002604166666668 4.554036458333332  5.9375 4.462890624999999  C 5.872395833333334 4.371744791666665  5.830078125 4.309895833333332  5.810546875 4.27734375  C 5.791015625 4.238281250000001  5.7421875 4.1455078125  5.6640625 3.9990234375  C 5.5859375 3.8525390625  5.504557291666668 3.704427083333332  5.419921875 3.5546874999999996  C 5.335286458333333 3.404947916666665  5.2490234375 3.250325520833332  5.1611328125 3.0908203125  C 5.0732421875 2.9313151041666647  4.991861979166667 2.7994791666666647  4.9169921875 2.6953125  C 4.842122395833334 2.591145833333332  4.788411458333334 2.532552083333332  4.755859375 2.51953125  C 4.723307291666667 2.5065104166666647  4.671223958333334 2.4999999999999996  4.599609375 2.4999999999999996  C 4.287109375 2.4999999999999996  3.9583333333333335 2.571614583333333  3.61328125 2.7148437500000004  C 3.313802083333334 2.8515624999999996  3.053385416666667 3.1591796874999996  2.83203125 3.6376953125000004  C 2.610677083333334 4.1162109375  2.5 4.541015625  2.5 4.912109375000001  C 2.5 5.016276041666667  2.508138020833334 5.126953125  2.5244140625 5.244140625  C 2.540690104166667 5.361328125  2.5569661458333335 5.460611979166666  2.5732421875 5.541992187500001  C 2.589518229166667 5.623372395833332  2.618815104166667 5.730794270833332  2.6611328125 5.864257812500001  C 2.7034505208333335 5.997721354166667  2.736002604166667 6.09375  2.7587890625 6.15234375  C 2.781575520833334 6.2109375  2.822265625 6.318359375000001  2.880859375 6.474609375  C 2.939453125 6.630859374999999  2.9752604166666665 6.728515625000001  2.98828125 6.767578125  C 3.37890625 7.835286458333334  4.083658854166667 8.878580729166666  5.1025390625 9.897460937500002  C 6.121419270833334 10.916341145833332  7.164713541666667 11.62109375  8.232421875 12.01171875  C 8.271484375000002 12.024739583333332  8.369140625 12.060546875  8.525390625 12.119140625  C 8.681640625000002 12.177734375  8.789062500000002 12.218424479166668  8.84765625 12.2412109375  C 8.906250000000002 12.263997395833332  9.002278645833336 12.296549479166666  9.1357421875 12.3388671875  C 9.269205729166668 12.381184895833332  9.376627604166668 12.410481770833332  9.4580078125 12.4267578125  C 9.539388020833334 12.443033854166666  9.638671875000002 12.459309895833334  9.755859375 12.4755859375  C 9.873046875000002 12.491861979166668  9.983723958333336 12.5  10.087890625 12.5  C 10.458984375 12.5  10.8837890625 12.389322916666668  11.3623046875 12.16796875  C 11.8408203125 11.946614583333334  12.1484375 11.686197916666668  12.28515625 11.38671875  Z M 14.1748046875 0.8251953125000006  C 14.724934895833332 1.3753255208333321  15 2.0377604166666647  15 2.8125  L 15 12.1875  C 15 12.962239583333332  14.724934895833332 13.624674479166668  14.1748046875 14.1748046875  C 13.624674479166668 14.724934895833332  12.962239583333336 15  12.1875 15  L 2.8125 15  C 2.0377604166666665 15  1.3753255208333335 14.724934895833332  0.8251953125 14.1748046875  C 0.27506510416666663 13.624674479166668  0 12.962239583333332  0 12.1875  L 0 2.8125  C 0 2.0377604166666647  0.27506510416666663 1.3753255208333321  0.8251953125 0.8251953125000006  C 1.3753255208333335 0.27506510416666574  2.0377604166666665 0  2.8125 0  L 12.1875 0  C 12.962239583333336 0  13.624674479166668 0.27506510416666574  14.1748046875 0.8251953125000006  Z " fill-rule="nonzero" fill="#409eff" stroke="none" transform="matrix(1 0 0 1 456 126 )" />
  </g>
</svg>