<?xml version="1.0" encoding="utf-8"?>
<svg version="1.1" xmlns:xlink="http://www.w3.org/1999/xlink" width="50px" height="50px" xmlns="http://www.w3.org/2000/svg">
  <g transform="matrix(1 0 0 1 -694 -686 )">
    <path d="M 38.96484375 28.548177083333336  C 39.37717013888889 28.135850694444443  39.58333333333333 27.647569444444443  39.58333333333333 27.083333333333336  L 39.58333333333333 22.916666666666668  C 39.58333333333333 22.352430555555554  39.37717013888889 21.864149305555554  38.96484375 21.451822916666668  C 38.552517361111114 21.03949652777778  38.064236111111114 20.833333333333332  37.5 20.833333333333332  L 29.166666666666668 20.833333333333332  L 29.166666666666668 12.5  C 29.166666666666668 11.935763888888884  28.960503472222225 11.447482638888884  28.548177083333332 11.03515625  C 28.135850694444446 10.62282986111111  27.647569444444446 10.416666666666668  27.083333333333332 10.416666666666668  L 22.916666666666664 10.416666666666668  C 22.352430555555557 10.416666666666668  21.864149305555557 10.62282986111111  21.451822916666664 11.03515625  C 21.03949652777778 11.447482638888884  20.833333333333336 11.935763888888884  20.833333333333336 12.5  L 20.833333333333336 20.833333333333332  L 12.5 20.833333333333332  C 11.93576388888889 20.833333333333332  11.44748263888889 21.03949652777778  11.03515625 21.451822916666668  C 10.622829861111112 21.864149305555554  10.416666666666668 22.352430555555554  10.416666666666668 22.916666666666668  L 10.416666666666668 27.083333333333336  C 10.416666666666668 27.647569444444443  10.622829861111112 28.135850694444443  11.03515625 28.548177083333336  C 11.44748263888889 28.96050347222222  11.93576388888889 29.166666666666664  12.5 29.166666666666664  L 20.833333333333336 29.166666666666664  L 20.833333333333336 37.5  C 20.833333333333336 38.06423611111111  21.03949652777778 38.55251736111111  21.451822916666664 38.96484375  C 21.864149305555557 39.37717013888889  22.352430555555557 39.58333333333333  22.916666666666664 39.58333333333333  L 27.083333333333332 39.58333333333333  C 27.647569444444446 39.58333333333333  28.135850694444446 39.37717013888889  28.548177083333332 38.96484375  C 28.960503472222225 38.55251736111111  29.166666666666668 38.06423611111111  29.166666666666668 37.5  L 29.166666666666668 29.166666666666664  L 37.5 29.166666666666664  C 38.064236111111114 29.166666666666664  38.552517361111114 28.96050347222222  38.96484375 28.548177083333336  Z M 46.64713541666667 12.451171875  C 48.882378472222214 16.281467013888886  50 20.464409722222214  50 25  C 50 29.53559027777778  48.882378472222214 33.71853298611111  46.64713541666667 37.548828125  C 44.411892361111114 41.37912326388889  41.37912326388889 44.41189236111111  37.548828125 46.64713541666667  C 33.718532986111114 48.88237847222223  29.53559027777778 50  25 50  C 20.464409722222225 50  16.28146701388889 48.88237847222223  12.451171875 46.64713541666667  C 8.620876736111112 44.41189236111111  5.588107638888889 41.37912326388889  3.3528645833333335 37.548828125  C 1.1176215277777777 33.71853298611111  0 29.53559027777778  0 25  C 0 20.464409722222214  1.1176215277777777 16.281467013888886  3.3528645833333335 12.451171875  C 5.588107638888889 8.62087673611111  8.620876736111112 5.588107638888884  12.451171875 3.3528645833333313  C 16.28146701388889 1.1176215277777735  20.464409722222225 0  25 0  C 29.53559027777778 0  33.718532986111114 1.1176215277777735  37.548828125 3.3528645833333313  C 41.37912326388889 5.588107638888884  44.411892361111114 8.62087673611111  46.64713541666667 12.451171875  Z " fill-rule="nonzero" fill="#47b762" stroke="none" transform="matrix(1 0 0 1 694 686 )" />
  </g>
</svg>