<?xml version="1.0" encoding="utf-8"?>
<svg version="1.1" xmlns:xlink="http://www.w3.org/1999/xlink" width="43px" height="43px" xmlns="http://www.w3.org/2000/svg">
  <g transform="matrix(1 0 0 1 -25 -264 )">
    <path d="M 27.8828125 25.36328125  C 29.767795138888896 26.74435763888889  31.05555555555556 28.56401909722222  31.74609375 30.822265625  C 31.89539930555556 31.28884548611111  31.858072916666664 31.74142795138889  31.634114583333336 32.18001302083333  C 31.41015625 32.61859809027778  31.06488715277778 32.91254340277778  30.598307291666664 33.061848958333336  C 30.13172743055556 33.211154513888886  29.674479166666664 33.173828125  29.2265625 32.949869791666664  C 28.778645833333336 32.725911458333336  28.480034722222225 32.371310763888886  28.330729166666664 31.88606770833333  C 27.86414930555556 30.39301215277777  27.000976562500004 29.1845703125  25.7412109375 28.2607421875  C 24.481445312500004 27.3369140625  23.067708333333336 26.875  21.5 26.875  C 19.932291666666668 26.875  18.5185546875 27.3369140625  17.2587890625 28.2607421875  C 15.9990234375 29.1845703125  15.135850694444448 30.39301215277777  14.669270833333332 31.88606770833333  C 14.51996527777778 32.371310763888886  14.22601996527778 32.725911458333336  13.787434895833332 32.949869791666664  C 13.34884982638889 33.173828125  12.896267361111112 33.211154513888886  12.4296875 33.061848958333336  C 11.944444444444445 32.91254340277778  11.58984375 32.61859809027778  11.365885416666668 32.18001302083333  C 11.141927083333332 31.74142795138889  11.104600694444445 31.28884548611111  11.25390625 30.822265625  C 11.944444444444445 28.56401909722222  13.232204861111112 26.74435763888889  15.1171875 25.36328125  C 17.00217013888889 23.98220486111111  19.129774305555557 23.29166666666667  21.5 23.29166666666667  C 23.870225694444446 23.29166666666667  25.997829861111114 23.98220486111111  27.8828125 25.36328125  Z M 16.866861979166668 11.7998046875  C 17.566731770833332 12.499674479166664  17.916666666666668 13.344184027777775  17.916666666666668 14.333333333333336  C 17.916666666666668 15.322482638888886  17.566731770833332 16.166992187499996  16.866861979166668 16.866861979166664  C 16.1669921875 17.566731770833336  15.32248263888889 17.916666666666664  14.333333333333332 17.916666666666664  C 13.34418402777778 17.916666666666664  12.499674479166668 17.566731770833336  11.7998046875 16.866861979166664  C 11.099934895833332 16.166992187499996  10.75 15.322482638888886  10.75 14.333333333333336  C 10.75 13.344184027777775  11.099934895833332 12.499674479166664  11.7998046875 11.7998046875  C 12.499674479166668 11.099934895833336  13.34418402777778 10.75  14.333333333333332 10.75  C 15.32248263888889 10.75  16.1669921875 11.099934895833336  16.866861979166668 11.7998046875  Z M 31.2001953125 11.7998046875  C 31.900065104166664 12.499674479166664  32.25 13.344184027777775  32.25 14.333333333333336  C 32.25 15.322482638888886  31.900065104166664 16.166992187499996  31.2001953125 16.866861979166664  C 30.500325520833336 17.566731770833336  29.655815972222225 17.916666666666664  28.666666666666664 17.916666666666664  C 27.677517361111114 17.916666666666664  26.8330078125 17.566731770833336  26.133138020833336 16.866861979166664  C 25.433268229166664 16.166992187499996  25.083333333333336 15.322482638888886  25.083333333333336 14.333333333333336  C 25.083333333333336 13.344184027777775  25.433268229166664 12.499674479166664  26.133138020833336 11.7998046875  C 26.8330078125 11.099934895833336  27.677517361111114 10.75  28.666666666666664 10.75  C 29.655815972222225 10.75  30.500325520833336 11.099934895833336  31.2001953125 11.7998046875  Z M 37.988932291666664 28.45670572916667  C 38.940755208333336 26.2451171875  39.416666666666664 23.92621527777778  39.416666666666664 21.5  C 39.416666666666664 19.07378472222222  38.940755208333336 16.7548828125  37.988932291666664 14.543294270833336  C 37.037109375 12.331705729166664  35.763346354166664 10.428059895833336  34.167643229166664 8.832356770833336  C 32.571940104166664 7.236653645833335  30.668294270833336 5.962890625  28.456705729166664 5.011067708333335  C 26.2451171875 4.059244791666665  23.92621527777778 3.583333333333335  21.5 3.583333333333335  C 19.07378472222222 3.583333333333335  16.7548828125 4.059244791666665  14.543294270833332 5.011067708333335  C 12.331705729166668 5.962890625  10.428059895833334 7.236653645833335  8.832356770833334 8.832356770833336  C 7.236653645833334 10.428059895833336  5.962890625 12.331705729166664  5.011067708333333 14.543294270833336  C 4.059244791666667 16.7548828125  3.583333333333333 19.07378472222222  3.583333333333333 21.5  C 3.583333333333333 23.92621527777778  4.059244791666667 26.2451171875  5.011067708333333 28.45670572916667  C 5.962890625 30.66829427083333  7.236653645833334 32.571940104166664  8.832356770833334 34.167643229166664  C 10.428059895833334 35.763346354166664  12.331705729166668 37.037109375  14.543294270833332 37.988932291666664  C 16.7548828125 38.940755208333336  19.07378472222222 39.416666666666664  21.5 39.416666666666664  C 23.92621527777778 39.416666666666664  26.2451171875 38.940755208333336  28.456705729166664 37.988932291666664  C 30.668294270833336 37.037109375  32.571940104166664 35.763346354166664  34.167643229166664 34.167643229166664  C 35.763346354166664 32.571940104166664  37.037109375 30.66829427083333  37.988932291666664 28.45670572916667  Z M 40.116536458333336 10.7080078125  C 42.03884548611111 14.00206163194444  43 17.599392361111104  43 21.5  C 43 25.40060763888889  42.03884548611111 28.99793836805555  40.116536458333336 32.2919921875  C 38.19422743055556 35.58604600694444  35.58604600694444 38.19422743055556  32.2919921875 40.116536458333336  C 28.99793836805556 42.038845486111114  25.40060763888889 43  21.5 43  C 17.59939236111111 43  14.002061631944445 42.038845486111114  10.7080078125 40.116536458333336  C 7.413953993055556 38.19422743055556  4.805772569444445 35.58604600694444  2.883463541666667 32.2919921875  C 0.9611545138888887 28.99793836805555  0 25.40060763888889  0 21.5  C 0 17.599392361111104  0.9611545138888887 14.00206163194444  2.883463541666667 10.7080078125  C 4.805772569444445 7.413953993055555  7.413953993055556 4.80577256944444  10.7080078125 2.883463541666665  C 14.002061631944445 0.9611545138888852  17.59939236111111 0  21.5 0  C 25.40060763888889 0  28.99793836805556 0.9611545138888852  32.2919921875 2.883463541666665  C 35.58604600694444 4.80577256944444  38.19422743055556 7.413953993055555  40.116536458333336 10.7080078125  Z " fill-rule="nonzero" fill="#b9b9b9" stroke="none" transform="matrix(1 0 0 1 25 264 )" />
  </g>
</svg>