<?xml version="1.0" encoding="utf-8"?>
<svg version="1.1" xmlns:xlink="http://www.w3.org/1999/xlink" width="18px" height="20px" xmlns="http://www.w3.org/2000/svg">
  <g transform="matrix(1 0 0 1 -133 -678 )">
    <path d="M 17.961647727272727 15.497159090909092  C 17.98721590909091 15.563446969696969  18 15.662878787878785  18 15.795454545454547  C 18 16.051136363636363  17.957386363636363 16.38494318181818  17.87215909090909 16.796875  C 17.78693181818182 17.20880681818182  17.697443181818183 17.533143939393938  17.603693181818183 17.769886363636363  C 17.42471590909091 18.24337121212121  16.904829545454547 18.745265151515152  16.04403409090909 19.27556818181818  C 15.242897727272728 19.758522727272727  14.450284090909092 20  13.666193181818183 20  C 13.436079545454545 20  13.210227272727275 19.98342803030303  12.988636363636363 19.950284090909093  C 12.767045454545455 19.917140151515152  12.522017045454547 19.857954545454547  12.253551136363637 19.772727272727273  C 11.985085227272728 19.6875  11.784801136363637 19.618844696969695  11.652698863636363 19.566761363636363  C 11.520596590909093 19.51467803030303  11.28409090909091 19.417613636363637  10.943181818181817 19.27556818181818  C 10.602272727272728 19.133522727272727  10.39346590909091 19.048295454545453  10.316761363636363 19.019886363636363  C 9.481534090909093 18.68844696969697  8.735795454545455 18.295454545454547  8.079545454545455 17.840909090909093  C 6.997159090909091 17.09280303030303  5.872159090909091 16.070075757575758  4.704545454545454 14.772727272727273  C 3.5369318181818183 13.475378787878785  2.6164772727272734 12.225378787878789  1.9431818181818181 11.022727272727273  C 1.534090909090909 10.293560606060606  1.1803977272727273 9.46496212121212  0.8821022727272727 8.536931818181818  C 0.8565340909090909 8.451704545454543  0.7798295454545455 8.219696969696969  0.6519886363636365 7.840909090909092  C 0.5241477272727273 7.462121212121211  0.43678977272727276 7.199337121212119  0.38991477272727276 7.052556818181818  C 0.3430397727272727 6.905776515151514  0.28125 6.683238636363635  0.20454545454545456 6.384943181818182  C 0.1278409090909091 6.086647727272725  0.07457386363636365 5.814393939393938  0.044744318181818184 5.568181818181818  C 0.014914772727272726 5.3219696969696955  0 5.071022727272727  0 4.815340909090908  C 0 3.9441287878787867  0.21732954545454544 3.063446969696968  0.6519886363636365 2.173295454545454  C 1.1292613636363638 1.2168560606060574  1.5809659090909092 0.6392045454545459  2.007102272727273 0.4403409090909083  C 2.2201704545454546 0.3361742424242409  2.5120738636363638 0.2367424242424221  2.8828125 0.14204545454545414  C 3.2535511363636362 0.047348484848483974  3.553977272727273 0  3.784090909090909 0  C 3.9034090909090913 0  3.992897727272728 0.014204545454545858  4.052556818181818 0.042613636363635354  C 4.205965909090909 0.09943181818181879  4.431818181818182 0.45928030303030276  4.730113636363636 1.1221590909090917  C 4.823863636363637 1.3020833333333304  4.951704545454547 1.5577651515151492  5.113636363636364 1.8892045454545459  C 5.275568181818182 2.220643939393938  5.424715909090909 2.521306818181819  5.561079545454546 2.791193181818181  C 5.697443181818182 3.061079545454546  5.829545454545454 3.314393939393938  5.957386363636364 3.5511363636363646  C 5.982954545454546 3.589015151515149  6.057528409090909 3.7073863636363646  6.181107954545454 3.90625  C 6.304687500000002 4.105113636363635  6.396306818181819 4.273200757575757  6.455965909090908 4.410511363636365  C 6.515625 4.547821969696968  6.545454545454546 4.682765151515149  6.545454545454546 4.815340909090908  C 6.545454545454546 5.004734848484846  6.424005681818182 5.241477272727273  6.181107954545454 5.525568181818182  C 5.9382102272727275 5.809659090909092  5.6740056818181825 6.070075757575757  5.388494318181818 6.306818181818182  C 5.102982954545455 6.543560606060604  4.838778409090908 6.794507575757576  4.595880681818182 7.059659090909092  C 4.352982954545454 7.3248106060606055  4.231534090909091 7.542613636363635  4.231534090909091 7.713068181818182  C 4.231534090909091 7.798295454545454  4.252840909090909 7.904829545454546  4.295454545454546 8.032670454545453  C 4.3380681818181825 8.160511363636365  4.374289772727273 8.257575757575758  4.404119318181818 8.323863636363635  C 4.433948863636364 8.390151515151514  4.493607954545454 8.503787878787879  4.583096590909092 8.664772727272727  C 4.6725852272727275 8.825757575757576  4.721590909090909 8.915719696969697  4.730113636363636 8.934659090909092  C 5.377840909090909 10.232007575757574  6.119318181818182 11.344696969696969  6.954545454545454 12.272727272727273  C 7.7897727272727275 13.200757575757574  8.791193181818183 14.024621212121211  9.958806818181817 14.744318181818183  C 9.975852272727273 14.753787878787875  10.056818181818182 14.808238636363637  10.201704545454545 14.907670454545453  C 10.34659090909091 15.007102272727273  10.448863636363637 15.073390151515149  10.508522727272728 15.106534090909092  C 10.568181818181818 15.13967803030303  10.655539772727272 15.17992424242424  10.770596590909092 15.227272727272727  C 10.885653409090908 15.274621212121211  10.981534090909092 15.298295454545453  11.058238636363637 15.298295454545453  C 11.211647727272728 15.298295454545453  11.407670454545455 15.163352272727273  11.646306818181817 14.893465909090908  C 11.884943181818182 14.623579545454547  12.110795454545457 14.330018939393938  12.323863636363637 14.012784090909092  C 12.536931818181818 13.695549242424239  12.771306818181817 13.401988636363637  13.026988636363637 13.132102272727273  C 13.282670454545455 12.862215909090908  13.495738636363638 12.727272727272727  13.666193181818183 12.727272727272727  C 13.785511363636365 12.727272727272727  13.906960227272728 12.760416666666664  14.030539772727272 12.826704545454547  C 14.154119318181818 12.892992424242422  14.305397727272728 12.994791666666664  14.484375 13.132102272727273  C 14.663352272727272 13.269412878787875  14.769886363636365 13.352272727272727  14.803977272727272 13.380681818181817  C 15.017045454545455 13.522727272727273  15.245028409090908 13.669507575757574  15.487926136363637 13.821022727272727  C 15.730823863636363 13.972537878787875  16.001420454545457 14.138257575757574  16.29971590909091 14.318181818181817  C 16.598011363636367 14.498106060606059  16.828125000000004 14.640151515151514  16.990056818181817 14.744318181818183  C 17.586647727272727 15.075757575757574  17.910511363636363 15.326704545454547  17.961647727272727 15.497159090909092  Z " fill-rule="nonzero" fill="#409eff" stroke="none" transform="matrix(1 0 0 1 133 678 )" />
  </g>
</svg>