<?xml version="1.0" encoding="utf-8"?>
<svg version="1.1" xmlns:xlink="http://www.w3.org/1999/xlink" width="18px" height="18px" xmlns="http://www.w3.org/2000/svg">
  <g transform="matrix(1 0 0 1 -862 -104 )">
    <path d="M 14.8359375 7.62890625  C 14.9765625 7.48828125  15.046875 7.3125  15.046875 7.1015625  C 15.046875 6.8828125  14.9765625 6.703125000000001  14.8359375 6.562500000000001  L 13.76953125 5.507812500000001  C 13.621093750000002 5.359374999999998  13.445312500000002 5.285156249999999  13.2421875 5.285156249999999  C 13.0390625 5.285156249999999  12.86328125 5.359374999999998  12.71484375 5.507812500000001  L 7.93359375 10.277343750000002  L 5.28515625 7.62890625  C 5.13671875 7.48046875  4.9609375 7.406250000000001  4.7578125 7.406250000000001  C 4.554687500000001 7.406250000000001  4.37890625 7.48046875  4.23046875 7.62890625  L 3.1640625 8.68359375  C 3.0234375 8.82421875  2.9531250000000004 9.00390625  2.953125 9.222656250000002  C 2.9531250000000004 9.433593750000002  3.0234375 9.609375000000002  3.1640625 9.750000000000002  L 7.40625 13.9921875  C 7.554687500000001 14.140624999999998  7.730468750000001 14.21484375  7.93359375 14.21484375  C 8.14453125 14.21484375  8.32421875 14.140624999999998  8.47265625 13.9921875  L 14.8359375 7.62890625  Z M 16.79296875 4.482421875  C 17.597656249999996 5.861328124999998  18 7.367187499999997  18 9  C 18 10.6328125  17.597656249999996 12.138671874999998  16.79296875 13.517578125  C 15.988281250000002 14.896484375  14.896484375 15.98828125  13.517578125 16.79296875  C 12.138671875000002 17.59765625  10.6328125 18  9 18  C 7.367187500000001 18  5.861328125 17.59765625  4.482421875 16.79296875  C 3.1035156250000004 15.98828125  2.01171875 14.896484375  1.20703125 13.517578125  C 0.40234374999999994 12.138671874999998  0 10.6328125  0 9  C 0 7.367187499999997  0.40234374999999994 5.861328124999998  1.20703125 4.482421875  C 2.01171875 3.103515625  3.1035156250000004 2.0117187499999982  4.482421875 1.2070312499999993  C 5.861328125 0.40234374999999845  7.367187500000001 0  9 0  C 10.6328125 0  12.138671875000002 0.40234374999999845  13.517578125 1.2070312499999993  C 14.896484375 2.0117187499999982  15.988281250000002 3.103515625  16.79296875 4.482421875  Z " fill-rule="nonzero" fill="#67c23a" stroke="none" transform="matrix(1 0 0 1 862 104 )" />
  </g>
</svg>