<?xml version="1.0" encoding="utf-8"?>
<svg version="1.1" xmlns:xlink="http://www.w3.org/1999/xlink" width="15px" height="15px" xmlns="http://www.w3.org/2000/svg">
  <g transform="matrix(1 0 0 1 -204 -391 )">
    <path d="M 11.689453125 8.564453125000002  C 11.813151041666666 8.440755208333332  11.875 8.294270833333332  11.875 8.125000000000002  L 11.875 6.875000000000001  C 11.875 6.705729166666666  11.813151041666666 6.559244791666666  11.689453125 6.435546875000001  C 11.565755208333336 6.311848958333334  11.419270833333336 6.249999999999999  11.25 6.249999999999999  L 8.75 6.249999999999999  L 8.75 3.75  C 8.75 3.580729166666665  8.688151041666668 3.434244791666665  8.564453125 3.310546875  C 8.440755208333334 3.186848958333333  8.294270833333334 3.1250000000000004  8.125 3.1250000000000004  L 6.875 3.1250000000000004  C 6.705729166666668 3.1250000000000004  6.559244791666668 3.186848958333333  6.435546875 3.310546875  C 6.311848958333334 3.434244791666665  6.25 3.580729166666665  6.25 3.75  L 6.25 6.249999999999999  L 3.75 6.249999999999999  C 3.580729166666667 6.249999999999999  3.434244791666667 6.311848958333334  3.310546875 6.435546875000001  C 3.1868489583333335 6.559244791666666  3.125 6.705729166666666  3.125 6.875000000000001  L 3.125 8.125000000000002  C 3.125 8.294270833333332  3.1868489583333335 8.440755208333332  3.310546875 8.564453125000002  C 3.434244791666667 8.688151041666666  3.580729166666667 8.749999999999998  3.75 8.749999999999998  L 6.25 8.749999999999998  L 6.25 11.25  C 6.25 11.419270833333334  6.311848958333334 11.565755208333334  6.435546875 11.689453125  C 6.559244791666668 11.813151041666666  6.705729166666668 11.875  6.875 11.875  L 8.125 11.875  C 8.294270833333334 11.875  8.440755208333334 11.813151041666666  8.564453125 11.689453125  C 8.688151041666668 11.565755208333334  8.75 11.419270833333334  8.75 11.25  L 8.75 8.749999999999998  L 11.25 8.749999999999998  C 11.419270833333336 8.749999999999998  11.565755208333336 8.688151041666666  11.689453125 8.564453125000002  Z M 13.994140625 3.7353515625  C 14.664713541666664 4.884440104166665  15 6.139322916666664  15 7.5  C 15 8.860677083333334  14.664713541666664 10.115559895833332  13.994140625 11.2646484375  C 13.323567708333336 12.413736979166666  12.413736979166666 13.323567708333334  11.2646484375 13.994140625  C 10.115559895833336 14.664713541666668  8.860677083333334 15  7.5 15  C 6.139322916666667 15  4.884440104166667 14.664713541666668  3.7353515625 13.994140625  C 2.5862630208333335 13.323567708333334  1.676432291666667 12.413736979166666  1.005859375 11.2646484375  C 0.33528645833333326 10.115559895833332  0 8.860677083333334  0 7.5  C 0 6.139322916666664  0.33528645833333326 4.884440104166665  1.005859375 3.7353515625  C 1.676432291666667 2.586263020833333  2.5862630208333335 1.6764322916666652  3.7353515625 1.0058593749999996  C 4.884440104166667 0.33528645833333204  6.139322916666667 0  7.5 0  C 8.860677083333334 0  10.115559895833336 0.33528645833333204  11.2646484375 1.0058593749999996  C 12.413736979166666 1.6764322916666652  13.323567708333336 2.586263020833333  13.994140625 3.7353515625  Z " fill-rule="nonzero" fill="#f4a04a" stroke="none" transform="matrix(1 0 0 1 204 391 )" />
  </g>
</svg>