<?xml version="1.0" encoding="utf-8"?>
<svg version="1.1" xmlns:xlink="http://www.w3.org/1999/xlink" width="24px" height="20px" xmlns="http://www.w3.org/2000/svg">
  <g transform="matrix(1 0 0 1 -269 -1008 )">
    <path d="M 19.767857142857142 10.729166666666664  C 21.446428571428573 9.097222222222221  22.285714285714285 7.552083333333332  22.285714285714285 6.09375  C 22.285714285714285 5.390625  22.189732142857146 4.769965277777777  21.997767857142858 4.231770833333332  C 21.805803571428573 3.693576388888886  21.56026785714286 3.266059027777777  21.261160714285715 2.94921875  C 20.962053571428577 2.632378472222221  20.59821428571429 2.374131944444444  20.169642857142858 2.1744791666666674  C 19.74107142857143 1.9748263888888862  19.321428571428573 1.8402777777777768  18.910714285714285 1.7708333333333326  C 18.5 1.7013888888888862  18.0625 1.6666666666666674  17.598214285714285 1.6666666666666674  C 17.133928571428573 1.6666666666666674  16.63392857142857 1.77734375  16.098214285714285 1.9986979166666674  C 15.5625 2.2200520833333326  15.069196428571429 2.4978298611111094  14.61830357142857 2.83203125  C 14.167410714285717 3.166232638888886  13.78125 3.478732638888886  13.45982142857143 3.76953125  C 13.13839285714286 4.060329861111109  12.870535714285715 4.327256944444445  12.65625 4.5703125  C 12.495535714285715 4.761284722222221  12.276785714285715 4.856770833333332  12 4.856770833333332  C 11.723214285714286 4.856770833333332  11.504464285714285 4.761284722222221  11.34375 4.5703125  C 11.129464285714285 4.327256944444445  10.861607142857142 4.060329861111109  10.540178571428571 3.76953125  C 10.21875 3.478732638888886  9.832589285714286 3.166232638888886  9.381696428571429 2.83203125  C 8.930803571428573 2.4978298611111094  8.4375 2.2200520833333326  7.901785714285715 1.9986979166666674  C 7.366071428571429 1.77734375  6.866071428571431 1.6666666666666674  6.401785714285715 1.6666666666666674  C 5.9375 1.6666666666666674  5.500000000000001 1.7013888888888862  5.089285714285714 1.7708333333333326  C 4.678571428571429 1.8402777777777768  4.258928571428571 1.9748263888888862  3.8303571428571423 2.1744791666666674  C 3.4017857142857144 2.374131944444444  3.037946428571429 2.632378472222221  2.7388392857142856 2.94921875  C 2.4397321428571432 3.266059027777777  2.194196428571429 3.693576388888886  2.002232142857143 4.231770833333332  C 1.8102678571428577 4.769965277777777  1.7142857142857142 5.390625  1.7142857142857142 6.09375  C 1.7142857142857142 7.552083333333332  2.5491071428571432 9.092881944444445  4.21875 10.716145833333336  L 12 18.0078125  L 19.767857142857142 10.729166666666664  Z M 22.299107142857142 1.6145833333333326  C 23.433035714285715 2.690972222222221  24 4.184027777777777  24 6.09375  C 24 8.012152777777777  22.977678571428573 9.965277777777777  20.933035714285715 11.953125  L 12.589285714285714 19.765625  C 12.42857142857143 19.921875  12.232142857142858 20  12 20  C 11.767857142857144 20  11.571428571428573 19.921875  11.410714285714285 19.765625  L 3.0535714285714284 11.927083333333336  C 2.9642857142857144 11.85763888888889  2.8415178571428577 11.744791666666664  2.685267857142857 11.588541666666664  C 2.529017857142857 11.432291666666664  2.28125 11.148003472222223  1.9419642857142858 10.735677083333336  C 1.6026785714285714 10.323350694444443  1.2991071428571428 9.900173611111109  1.03125 9.466145833333332  C 0.7633928571428571 9.032118055555555  0.5245535714285715 8.506944444444445  0.31473214285714285 7.890625  C 0.10491071428571429 7.274305555555554  0 6.675347222222221  0 6.09375  C 0 4.184027777777777  0.5669642857142856 2.690972222222221  1.7008928571428572 1.6145833333333326  C 2.834821428571429 0.5381944444444442  4.4017857142857135 0  6.401785714285715 0  C 6.955357142857142 0  7.520089285714285 0.09331597222222099  8.095982142857142 0.2799479166666674  C 8.671875 0.4665798611111094  9.207589285714285 0.718315972222221  9.703125 1.03515625  C 10.198660714285715 1.3519965277777768  10.625000000000002 1.6493055555555536  10.982142857142858 1.9270833333333326  C 11.339285714285715 2.2048611111111094  11.678571428571429 2.5  12 2.8125  C 12.32142857142857 2.5  12.660714285714288 2.2048611111111094  13.017857142857142 1.9270833333333326  C 13.375000000000002 1.6493055555555536  13.801339285714286 1.3519965277777768  14.296875 1.03515625  C 14.792410714285714 0.718315972222221  15.328125 0.4665798611111094  15.904017857142858 0.2799479166666674  C 16.479910714285715 0.09331597222222099  17.044642857142858 0  17.598214285714285 0  C 19.59821428571429 0  21.165178571428573 0.5381944444444442  22.299107142857142 1.6145833333333326  Z " fill-rule="nonzero" fill="#ffffff" stroke="none" transform="matrix(1 0 0 1 269 1008 )" />
  </g>
</svg>